<mxfile host="65bd71144e">
    <diagram id="GbY-rcY2quPzccg1INE1" name="Page-1">
        <mxGraphModel dx="894" dy="599" grid="1" gridSize="10" guides="1" tooltips="1" connect="1" arrows="1" fold="1" page="1" pageScale="1" pageWidth="827" pageHeight="1169" math="0" shadow="0">
            <root>
                <mxCell id="0"/>
                <mxCell id="1" parent="0"/>
                <mxCell id="2" value="C1" style="ellipse;whiteSpace=wrap;html=1;aspect=fixed;fillColor=#d0cee2;strokeColor=#56517e;" parent="1" vertex="1">
                    <mxGeometry x="34" y="652" width="50" height="50" as="geometry"/>
                </mxCell>
                <mxCell id="3" value="C2" style="ellipse;whiteSpace=wrap;html=1;aspect=fixed;fillColor=#d0cee2;strokeColor=#56517e;" parent="1" vertex="1">
                    <mxGeometry x="34" y="732" width="50" height="50" as="geometry"/>
                </mxCell>
                <mxCell id="4" value="C3" style="ellipse;whiteSpace=wrap;html=1;aspect=fixed;fillColor=#d0cee2;strokeColor=#56517e;" parent="1" vertex="1">
                    <mxGeometry x="34" y="812" width="50" height="50" as="geometry"/>
                </mxCell>
                <mxCell id="5" value="C4" style="ellipse;whiteSpace=wrap;html=1;aspect=fixed;fillColor=#d0cee2;strokeColor=#56517e;" parent="1" vertex="1">
                    <mxGeometry x="34" y="892" width="50" height="50" as="geometry"/>
                </mxCell>
                <mxCell id="24" value="K8S" style="rounded=0;whiteSpace=wrap;html=1;labelPosition=center;verticalLabelPosition=top;align=center;verticalAlign=bottom;fillColor=#b1ddf0;strokeColor=#10739e;" parent="1" vertex="1">
                    <mxGeometry x="154" y="450" width="640" height="652" as="geometry"/>
                </mxCell>
                <mxCell id="9" value="" style="group;fillColor=#b1ddf0;strokeColor=#10739e;" parent="1" vertex="1" connectable="0">
                    <mxGeometry x="184" y="712" width="160" height="170" as="geometry"/>
                </mxCell>
                <mxCell id="8" value="DS Cluister" style="rounded=0;whiteSpace=wrap;html=1;labelPosition=center;verticalLabelPosition=top;align=center;verticalAlign=bottom;fillColor=#d5e8d4;strokeColor=#82b366;" parent="9" vertex="1">
                    <mxGeometry width="160" height="170" as="geometry"/>
                </mxCell>
                <mxCell id="6" value="DS" style="rounded=1;whiteSpace=wrap;html=1;fillColor=#dae8fc;strokeColor=#6c8ebf;" parent="9" vertex="1">
                    <mxGeometry x="35" y="40" width="90" height="35" as="geometry"/>
                </mxCell>
                <mxCell id="7" value="DS" style="rounded=1;whiteSpace=wrap;html=1;fillColor=#dae8fc;strokeColor=#6c8ebf;" parent="9" vertex="1">
                    <mxGeometry x="35" y="95" width="90" height="35" as="geometry"/>
                </mxCell>
                <mxCell id="23" value="" style="group" parent="1" vertex="1" connectable="0">
                    <mxGeometry x="184" y="972" width="590" height="100" as="geometry"/>
                </mxCell>
                <mxCell id="10" value="Management Cluster" style="rounded=0;whiteSpace=wrap;html=1;labelPosition=center;verticalLabelPosition=top;align=center;verticalAlign=bottom;fillColor=#d5e8d4;strokeColor=#82b366;" parent="23" vertex="1">
                    <mxGeometry width="590" height="100" as="geometry"/>
                </mxCell>
                <mxCell id="22" value="" style="group" parent="23" vertex="1" connectable="0">
                    <mxGeometry x="20" y="30" width="550" height="40" as="geometry"/>
                </mxCell>
                <mxCell id="18" value="Pod1" style="rounded=1;whiteSpace=wrap;html=1;fillColor=#dae8fc;strokeColor=#6c8ebf;" parent="22" vertex="1">
                    <mxGeometry width="105" height="40" as="geometry"/>
                </mxCell>
                <mxCell id="19" value="Pod2" style="rounded=1;whiteSpace=wrap;html=1;fillColor=#dae8fc;strokeColor=#6c8ebf;" parent="22" vertex="1">
                    <mxGeometry x="148" width="105" height="40" as="geometry"/>
                </mxCell>
                <mxCell id="20" value="Pod3" style="rounded=1;whiteSpace=wrap;html=1;fillColor=#dae8fc;strokeColor=#6c8ebf;" parent="22" vertex="1">
                    <mxGeometry x="297" width="105" height="40" as="geometry"/>
                </mxCell>
                <mxCell id="21" value="Pod4" style="rounded=1;whiteSpace=wrap;html=1;fillColor=#dae8fc;strokeColor=#6c8ebf;" parent="22" vertex="1">
                    <mxGeometry x="445" width="105" height="40" as="geometry"/>
                </mxCell>
                <mxCell id="25" value="K8S API" style="rounded=0;whiteSpace=wrap;html=1;labelPosition=center;verticalLabelPosition=top;align=center;verticalAlign=bottom;fillColor=#fff2cc;strokeColor=#d6b656;" parent="1" vertex="1">
                    <mxGeometry x="184" y="922" width="160" height="20" as="geometry"/>
                </mxCell>
                <mxCell id="26" value="" style="shape=flexArrow;endArrow=classic;html=1;entryX=0.5;entryY=1;entryDx=0;entryDy=0;fillColor=#fff2cc;strokeColor=#d6b656;" parent="1" target="25" edge="1">
                    <mxGeometry width="50" height="50" relative="1" as="geometry">
                        <mxPoint x="264" y="972" as="sourcePoint"/>
                        <mxPoint x="274" y="1182" as="targetPoint"/>
                    </mxGeometry>
                </mxCell>
                <mxCell id="27" value="" style="shape=flexArrow;endArrow=classic;html=1;entryX=0.5;entryY=1;entryDx=0;entryDy=0;exitX=0.5;exitY=0;exitDx=0;exitDy=0;fillColor=#fff2cc;strokeColor=#d6b656;" parent="1" source="25" target="8" edge="1">
                    <mxGeometry width="50" height="50" relative="1" as="geometry">
                        <mxPoint x="274" y="982" as="sourcePoint"/>
                        <mxPoint x="274" y="952" as="targetPoint"/>
                    </mxGeometry>
                </mxCell>
                <mxCell id="38" value="" style="group;fillColor=#d5e8d4;strokeColor=#82b366;" parent="1" vertex="1" connectable="0">
                    <mxGeometry x="428.5" y="735.5" width="101" height="123" as="geometry"/>
                </mxCell>
                <mxCell id="28" value="Zookeeper" style="rounded=0;whiteSpace=wrap;html=1;labelPosition=center;verticalLabelPosition=top;align=center;verticalAlign=bottom;fillColor=#d5e8d4;strokeColor=#82b366;" parent="38" vertex="1">
                    <mxGeometry width="101" height="122.99999999999999" as="geometry"/>
                </mxCell>
                <mxCell id="37" value="" style="group" parent="38" vertex="1" connectable="0">
                    <mxGeometry x="14.428571428571429" y="25.323529411764707" width="73.94642857142857" height="65.11764705882352" as="geometry"/>
                </mxCell>
                <mxCell id="29" value="zk1" style="ellipse;whiteSpace=wrap;html=1;aspect=fixed;fillColor=#e1d5e7;strokeColor=#9673a6;" parent="37" vertex="1">
                    <mxGeometry x="23.44642857142857" width="17.823529411764703" height="17.823529411764703" as="geometry"/>
                </mxCell>
                <mxCell id="30" value="zk2" style="ellipse;whiteSpace=wrap;html=1;aspect=fixed;fillColor=#e1d5e7;strokeColor=#9673a6;" parent="37" vertex="1">
                    <mxGeometry y="39.79411764705882" width="17.823529411764703" height="17.823529411764703" as="geometry"/>
                </mxCell>
                <mxCell id="31" value="zk3" style="ellipse;whiteSpace=wrap;html=1;aspect=fixed;fillColor=#e1d5e7;strokeColor=#9673a6;" parent="37" vertex="1">
                    <mxGeometry x="48.69642857142857" y="39.79411764705882" width="17.823529411764703" height="17.823529411764703" as="geometry"/>
                </mxCell>
                <mxCell id="32" value="" style="endArrow=none;html=1;" parent="37" source="30" target="29" edge="1">
                    <mxGeometry width="50" height="50" relative="1" as="geometry">
                        <mxPoint x="-180.35714285714286" y="112.14705882352939" as="sourcePoint"/>
                        <mxPoint x="-144.28571428571428" y="75.9705882352941" as="targetPoint"/>
                    </mxGeometry>
                </mxCell>
                <mxCell id="33" value="" style="endArrow=none;html=1;entryX=1;entryY=1;entryDx=0;entryDy=0;" parent="37" source="31" target="29" edge="1">
                    <mxGeometry width="50" height="50" relative="1" as="geometry">
                        <mxPoint x="19.839285714285715" y="47.02941176470587" as="sourcePoint"/>
                        <mxPoint x="34.358491173234256" y="28.850278508847172" as="targetPoint"/>
                    </mxGeometry>
                </mxCell>
                <mxCell id="34" value="" style="endArrow=none;html=1;" parent="37" source="30" target="31" edge="1">
                    <mxGeometry width="50" height="50" relative="1" as="geometry">
                        <mxPoint x="-180.35714285714286" y="112.14705882352939" as="sourcePoint"/>
                        <mxPoint x="-144.28571428571428" y="75.9705882352941" as="targetPoint"/>
                    </mxGeometry>
                </mxCell>
                <mxCell id="39" value="Update" style="shape=flexArrow;endArrow=classic;html=1;entryX=0.5;entryY=1;entryDx=0;entryDy=0;fillColor=#fff2cc;strokeColor=#d6b656;exitX=0.5;exitY=0;exitDx=0;exitDy=0;" parent="1" source="10" target="28" edge="1">
                    <mxGeometry width="50" height="50" relative="1" as="geometry">
                        <mxPoint x="704" y="972" as="sourcePoint"/>
                        <mxPoint x="454" y="852" as="targetPoint"/>
                    </mxGeometry>
                </mxCell>
                <mxCell id="40" value="" style="shape=flexArrow;endArrow=classic;html=1;entryX=0;entryY=0;entryDx=0;entryDy=0;fillColor=#fff2cc;strokeColor=#d6b656;exitX=1;exitY=0;exitDx=0;exitDy=0;" parent="1" source="8" target="11" edge="1">
                    <mxGeometry width="50" height="50" relative="1" as="geometry">
                        <mxPoint x="404" y="902" as="sourcePoint"/>
                        <mxPoint x="454" y="852" as="targetPoint"/>
                    </mxGeometry>
                </mxCell>
                <mxCell id="41" value="" style="endArrow=none;html=1;" parent="1" source="6" target="2" edge="1">
                    <mxGeometry width="50" height="50" relative="1" as="geometry">
                        <mxPoint x="404" y="902" as="sourcePoint"/>
                        <mxPoint x="454" y="852" as="targetPoint"/>
                    </mxGeometry>
                </mxCell>
                <mxCell id="42" value="" style="endArrow=none;html=1;" parent="1" source="6" target="3" edge="1">
                    <mxGeometry width="50" height="50" relative="1" as="geometry">
                        <mxPoint x="235.24244341331246" y="762" as="sourcePoint"/>
                        <mxPoint x="91.80843489611857" y="697.2359805387459" as="targetPoint"/>
                    </mxGeometry>
                </mxCell>
                <mxCell id="43" value="" style="endArrow=none;html=1;" parent="1" source="7" target="4" edge="1">
                    <mxGeometry width="50" height="50" relative="1" as="geometry">
                        <mxPoint x="229" y="776.7408833194747" as="sourcePoint"/>
                        <mxPoint x="93.95727811180313" y="768.460913840691" as="targetPoint"/>
                    </mxGeometry>
                </mxCell>
                <mxCell id="44" value="" style="endArrow=none;html=1;" parent="1" source="7" target="5" edge="1">
                    <mxGeometry width="50" height="50" relative="1" as="geometry">
                        <mxPoint x="229" y="837.2591166805253" as="sourcePoint"/>
                        <mxPoint x="93.95727811180313" y="845.5390861593091" as="targetPoint"/>
                    </mxGeometry>
                </mxCell>
                <mxCell id="45" value="" style="endArrow=none;html=1;" parent="1" source="6" target="4" edge="1">
                    <mxGeometry width="50" height="50" relative="1" as="geometry">
                        <mxPoint x="239" y="847.2591166805253" as="sourcePoint"/>
                        <mxPoint x="103.95727811180313" y="855.5390861593091" as="targetPoint"/>
                    </mxGeometry>
                </mxCell>
                <mxCell id="46" value="" style="endArrow=none;html=1;" parent="1" source="7" target="3" edge="1">
                    <mxGeometry width="50" height="50" relative="1" as="geometry">
                        <mxPoint x="249" y="857.2591166805253" as="sourcePoint"/>
                        <mxPoint x="113.95727811180313" y="865.5390861593091" as="targetPoint"/>
                    </mxGeometry>
                </mxCell>
                <mxCell id="47" value="" style="shape=flexArrow;endArrow=classic;startArrow=classic;html=1;edgeStyle=elbowEdgeStyle;exitX=1;exitY=0.5;exitDx=0;exitDy=0;fillColor=#fff2cc;strokeColor=#d6b656;entryX=0;entryY=0.5;entryDx=0;entryDy=0;" parent="1" source="8" target="28" edge="1">
                    <mxGeometry width="100" height="100" relative="1" as="geometry">
                        <mxPoint x="384" y="932" as="sourcePoint"/>
                        <mxPoint x="400" y="797" as="targetPoint"/>
                        <Array as="points">
                            <mxPoint x="380" y="740"/>
                        </Array>
                    </mxGeometry>
                </mxCell>
                <mxCell id="55" value="" style="group" parent="1" vertex="1" connectable="0">
                    <mxGeometry x="613.9999999999999" y="712" width="160" height="170" as="geometry"/>
                </mxCell>
                <mxCell id="11" value="策略服务模块集群" style="rounded=0;whiteSpace=wrap;html=1;labelPosition=center;verticalLabelPosition=top;align=center;verticalAlign=bottom;fillColor=#d5e8d4;strokeColor=#82b366;" parent="55" vertex="1">
                    <mxGeometry width="160" height="170" as="geometry"/>
                </mxCell>
                <mxCell id="12" value="Pod1" style="rounded=1;whiteSpace=wrap;html=1;fillColor=#dae8fc;strokeColor=#6c8ebf;" parent="55" vertex="1">
                    <mxGeometry x="9.995555555555484" y="30" width="59.62962962962963" height="30" as="geometry"/>
                </mxCell>
                <mxCell id="13" value="Pod2" style="rounded=1;whiteSpace=wrap;html=1;fillColor=#dae8fc;strokeColor=#6c8ebf;" parent="55" vertex="1">
                    <mxGeometry x="90.00481481481472" y="30" width="59.62962962962963" height="30" as="geometry"/>
                </mxCell>
                <mxCell id="14" value="Pod3" style="rounded=1;whiteSpace=wrap;html=1;fillColor=#dae8fc;strokeColor=#6c8ebf;" parent="55" vertex="1">
                    <mxGeometry x="9.995555555555484" y="90" width="59.62962962962963" height="30" as="geometry"/>
                </mxCell>
                <mxCell id="15" value="Pod4" style="rounded=1;whiteSpace=wrap;html=1;fillColor=#dae8fc;strokeColor=#6c8ebf;" parent="55" vertex="1">
                    <mxGeometry x="90.00481481481472" y="90" width="59.62962962962963" height="30" as="geometry"/>
                </mxCell>
                <mxCell id="76" value="" style="group" parent="1" vertex="1" connectable="0">
                    <mxGeometry x="184" y="510" width="160" height="60" as="geometry"/>
                </mxCell>
                <mxCell id="77" value="RocketMQ" style="rounded=0;whiteSpace=wrap;html=1;labelPosition=center;verticalLabelPosition=top;align=center;verticalAlign=bottom;fillColor=#d5e8d4;strokeColor=#82b366;" parent="76" vertex="1">
                    <mxGeometry width="160" height="60" as="geometry"/>
                </mxCell>
                <mxCell id="78" value="Pod1" style="rounded=1;whiteSpace=wrap;html=1;fillColor=#dae8fc;strokeColor=#6c8ebf;" parent="76" vertex="1">
                    <mxGeometry x="15.995555555555484" y="15" width="59.62962962962963" height="30" as="geometry"/>
                </mxCell>
                <mxCell id="79" value="Pod2" style="rounded=1;whiteSpace=wrap;html=1;fillColor=#dae8fc;strokeColor=#6c8ebf;" parent="76" vertex="1">
                    <mxGeometry x="86.00481481481472" y="15" width="59.62962962962963" height="30" as="geometry"/>
                </mxCell>
                <mxCell id="81" value="Event Publishing" style="shape=flexArrow;endArrow=classic;html=1;fillColor=#fff2cc;strokeColor=#d6b656;exitX=0.5;exitY=0;exitDx=0;exitDy=0;entryX=0.5;entryY=1;entryDx=0;entryDy=0;edgeStyle=orthogonalEdgeStyle;" parent="1" source="11" target="77" edge="1">
                    <mxGeometry width="50" height="50" relative="1" as="geometry">
                        <mxPoint x="714" y="982" as="sourcePoint"/>
                        <mxPoint x="480" y="540" as="targetPoint"/>
                    </mxGeometry>
                </mxCell>
                <mxCell id="85" value="Event Consume" style="shape=flexArrow;endArrow=none;startArrow=classic;html=1;edgeStyle=elbowEdgeStyle;entryX=1;entryY=0.5;entryDx=0;entryDy=0;fillColor=#fff2cc;strokeColor=#d6b656;exitX=0;exitY=0.5;exitDx=0;exitDy=0;endFill=0;" parent="1" source="84" target="77" edge="1">
                    <mxGeometry width="100" height="100" relative="1" as="geometry">
                        <mxPoint x="354" y="807" as="sourcePoint"/>
                        <mxPoint x="644" y="807" as="targetPoint"/>
                        <Array as="points">
                            <mxPoint x="380" y="540"/>
                            <mxPoint x="380" y="480"/>
                            <mxPoint x="594" y="772"/>
                            <mxPoint x="494" y="662"/>
                        </Array>
                    </mxGeometry>
                </mxCell>
                <mxCell id="94" value="storage" style="shape=flexArrow;endArrow=classic;html=1;entryX=0;entryY=0.5;entryDx=0;entryDy=0;fillColor=#fff2cc;strokeColor=#d6b656;exitX=1;exitY=0.5;exitDx=0;exitDy=0;" parent="1" source="84" target="91" edge="1">
                    <mxGeometry width="50" height="50" relative="1" as="geometry">
                        <mxPoint x="274" y="722" as="sourcePoint"/>
                        <mxPoint x="274" y="660" as="targetPoint"/>
                    </mxGeometry>
                </mxCell>
                <mxCell id="95" value="" style="shape=flexArrow;endArrow=classic;html=1;entryX=1;entryY=0.5;entryDx=0;entryDy=0;fillColor=#fff2cc;strokeColor=#d6b656;exitX=0;exitY=0.5;exitDx=0;exitDy=0;startArrow=block;" parent="1" source="11" target="28" edge="1">
                    <mxGeometry width="50" height="50" relative="1" as="geometry">
                        <mxPoint x="274" y="722" as="sourcePoint"/>
                        <mxPoint x="274" y="660" as="targetPoint"/>
                    </mxGeometry>
                </mxCell>
                <mxCell id="96" value="Image Uploading" style="shape=flexArrow;endArrow=classic;html=1;fillColor=#fff2cc;strokeColor=#d6b656;exitX=0.5;exitY=0;exitDx=0;exitDy=0;entryX=0.5;entryY=1;entryDx=0;entryDy=0;edgeStyle=orthogonalEdgeStyle;" parent="1" source="8" target="77" edge="1">
                    <mxGeometry width="50" height="50" relative="1" as="geometry">
                        <mxPoint x="354" y="590" as="sourcePoint"/>
                        <mxPoint x="484" y="590" as="targetPoint"/>
                    </mxGeometry>
                </mxCell>
                <mxCell id="102" value="" style="group" parent="1" vertex="1" connectable="0">
                    <mxGeometry x="674" y="503.75" width="100" height="72.5" as="geometry"/>
                </mxCell>
                <mxCell id="91" value="MySql" style="rounded=0;whiteSpace=wrap;html=1;fillColor=#d5e8d4;strokeColor=#82b366;labelPosition=center;verticalLabelPosition=top;align=center;verticalAlign=bottom;" parent="102" vertex="1">
                    <mxGeometry width="100" height="72.5" as="geometry"/>
                </mxCell>
                <mxCell id="92" value="" style="shape=cylinder3;whiteSpace=wrap;html=1;boundedLbl=1;backgroundOutline=1;size=15;fillColor=#dae8fc;strokeColor=#6c8ebf;" parent="102" vertex="1">
                    <mxGeometry x="18.589743589743595" y="18.125" width="24.35897435897436" height="36.25" as="geometry"/>
                </mxCell>
                <mxCell id="93" value="" style="shape=cylinder3;whiteSpace=wrap;html=1;boundedLbl=1;backgroundOutline=1;size=15;fillColor=#dae8fc;strokeColor=#6c8ebf;" parent="102" vertex="1">
                    <mxGeometry x="57.05128205128205" y="18.125" width="24.35897435897436" height="36.25" as="geometry"/>
                </mxCell>
                <mxCell id="101" value="" style="group" parent="1" vertex="1" connectable="0">
                    <mxGeometry x="442.93" y="502.5" width="150" height="75" as="geometry"/>
                </mxCell>
                <mxCell id="103" value="" style="group" parent="101" vertex="1" connectable="0">
                    <mxGeometry width="150" height="75" as="geometry"/>
                </mxCell>
                <mxCell id="84" value="Monitor Center" style="rounded=0;whiteSpace=wrap;html=1;fillColor=#d5e8d4;strokeColor=#82b366;labelPosition=center;verticalLabelPosition=top;align=center;verticalAlign=bottom;" parent="103" vertex="1">
                    <mxGeometry width="150" height="75" as="geometry"/>
                </mxCell>
                <mxCell id="86" value="Pod1" style="rounded=1;whiteSpace=wrap;html=1;fillColor=#dae8fc;strokeColor=#6c8ebf;" parent="103" vertex="1">
                    <mxGeometry x="21.85681273536461" y="22.5" width="38.276465441819774" height="30" as="geometry"/>
                </mxCell>
                <mxCell id="87" value="Pod2" style="rounded=1;whiteSpace=wrap;html=1;fillColor=#dae8fc;strokeColor=#6c8ebf;" parent="103" vertex="1">
                    <mxGeometry x="85.80965422800412" y="22.5" width="38.276465441819774" height="30" as="geometry"/>
                </mxCell>
            </root>
        </mxGraphModel>
    </diagram>
</mxfile>